HIERARCHY
ROOT Hips
{
	OFFSET 0.000000 8.830580 0.000000
	CHANNELS 6 Xposition Yposition Zposition Zrotation Yrotation Xrotation 
	JOINT Spine
	{
		OFFSET 0.000000 0.010000 0.000000
		CHANNELS 3 Zrotation Yrotation Xrotation
		JOINT Spine1
		{
			OFFSET 0.000000 2.459130 0.000000
			CHANNELS 3 Zrotation Yrotation Xrotation
			JOINT Neck
			{
				OFFSET 0.000000 2.484630 0.000000
				CHANNELS 3 Zrotation Yrotation Xrotation
				JOINT Head_virtual
				{
					OFFSET 0.000000 0.000000 0.000000
					CHANNELS 3 Zrotation Yrotation Xrotation
					JOINT Head
					{
						OFFSET 0.000000 0.927525 0.000000
						CHANNELS 3 Zrotation Yrotation Xrotation
						End Site
						{
							OFFSET 0.000000 0.000000 0.000000
						}
					}
				}
				JOINT LeftUpArm_virtual
				{
					OFFSET 0.000000 0.000000 0.000000
					CHANNELS 3 Zrotation Yrotation Xrotation
					JOINT LeftUpArm
					{
						OFFSET 1.248820 0.000000 0.000000
						CHANNELS 3 Zrotation Yrotation Xrotation
						JOINT LeftForeArm
						{
							OFFSET 2.597580 0.000000 0.000000
							CHANNELS 3 Zrotation Yrotation Xrotation
							JOINT LeftHand
							{
								OFFSET 2.455420 0.000000 0.000000
								CHANNELS 3 Zrotation Yrotation Xrotation
								End Site
								{
									OFFSET 0.000000 0.000000 0.000000
								}
							}
						}
					}
				}
				JOINT RightUpArm_virtual
				{
					OFFSET -0.000000 -0.000000 -0.000000
					CHANNELS 3 Zrotation Yrotation Xrotation
					JOINT RightUpArm
					{
						OFFSET -1.248820 -0.000000 -0.000000
						CHANNELS 3 Zrotation Yrotation Xrotation
						JOINT RightForeArm
						{
							OFFSET -2.597580 -0.000000 -0.000000
							CHANNELS 3 Zrotation Yrotation Xrotation
							JOINT RightHand
							{
								OFFSET -2.455420 -0.000000 -0.000000
								CHANNELS 3 Zrotation Yrotation Xrotation
								End Site
								{
									OFFSET 0.000000 0.000000 0.000000
								}
							}
						}
					}
				}
			}
		}
	}
	JOINT LeftUpLeg
	{
		OFFSET 1.271939 0.000000 0.000000
		CHANNELS 3 Zrotation Yrotation Xrotation
		JOINT LeftLowLeg
		{
			OFFSET 0.000000 -4.342910 0.000000
			CHANNELS 3 Zrotation Yrotation Xrotation
			JOINT LeftFoot
			{
				OFFSET 0.000000 -4.487670 0.000000
				CHANNELS 3 Zrotation Yrotation Xrotation
				JOINT LeftToeBase
				{
					OFFSET 0.000000 0.000000 1.515070
					CHANNELS 3 Zrotation Yrotation Xrotation
					End Site
					{
						OFFSET 0.000000 0.000000 0.000000
					}
				}
			}
		}
	}
	JOINT RightUpLeg
	{
		OFFSET -1.271939 0.000000 0.000000
		CHANNELS 3 Zrotation Yrotation Xrotation
		JOINT RightLowLeg
		{
			OFFSET 0.000000 -4.342910 0.000000
			CHANNELS 3 Zrotation Yrotation Xrotation
			JOINT RightFoot
			{
				OFFSET 0.000000 -4.487670 0.000000
				CHANNELS 3 Zrotation Yrotation Xrotation
				JOINT RightToeBase
				{
					OFFSET 0.000000 0.000000 1.515070
					CHANNELS 3 Zrotation Yrotation Xrotation
					End Site
					{
						OFFSET 0.000000 0.000000 0.000000
					}
				}
			}
		}
	}
}
MOTION
Frames: 11
Frame Time: 0.041667
-11.382348 9.118510 40.468488 -173.846469 -2.083016 -176.036544 6.663007 -5.383969 -8.082213 20.573491 -6.445946 20.193767 0.000000 0.000000 0.000000 -10.296739 -2.235425 -9.164001 4.795535 -5.851256 -43.554759 -16.276800 7.501780 1.281380 -45.914501 4.243580 44.470798 0.000000 -80.389999 0.000000 27.957800 8.355210 8.976790 22.071699 -1.229220 4.560640 32.476002 10.108000 2.395980 0.000000 24.145100 0.000000 -11.008400 -3.523900 -9.524340 -0.689411 -0.348699 -10.435696 0.000000 0.000000 19.086500 19.242773 -1.367085 1.878235 0.000000 0.000000 -35.168100 5.045223 1.876607 -20.989389 0.000000 0.000000 57.874401 16.552991 -6.137081 12.030882 0.000000 0.000000 -28.771700 
-11.385965 9.128107 40.334437 -173.656290 -1.988992 -176.134662 6.818588 -5.472231 -7.797808 20.748107 -6.530619 20.056273 0.000000 0.000000 0.000000 -10.755668 -2.017933 -9.318584 4.818113 -6.029189 -43.698996 -16.558500 7.467310 0.105803 -45.708900 4.769760 44.834999 0.000000 -80.862602 0.000000 27.819300 8.433440 9.509940 22.064501 -1.291210 3.451860 32.500500 9.607110 3.229180 0.000000 24.127600 0.000000 -10.893000 -3.845440 -9.160580 -0.513913 -0.413657 -9.082019 0.000000 0.000000 18.306400 19.346036 -0.992485 1.619743 0.000000 0.000000 -35.165501 5.067583 2.073948 -21.869665 0.000000 0.000000 55.059299 14.524574 -6.141382 9.986717 0.000000 0.000000 -28.283200 
-11.388219 9.134255 40.203791 -173.483220 -1.904398 -175.920840 6.917618 -5.599994 -7.672095 21.148635 -6.620299 19.893591 0.000000 0.000000 0.000000 -11.421644 -1.700972 -9.688180 4.794366 -6.351856 -43.716168 -17.018000 7.605930 -0.066239 -45.422798 4.425960 44.712299 0.000000 -81.397301 0.000000 28.054701 8.428370 9.220120 22.046499 -2.358900 4.372050 31.935301 11.682400 3.522840 0.000000 23.498100 0.000000 -10.808000 -3.852780 -9.828580 -0.349724 -0.606792 -8.073955 0.000000 0.000000 17.558800 19.360373 -0.530804 1.362659 0.000000 0.000000 -35.179899 4.997552 2.220097 -22.993949 0.000000 0.000000 51.787899 13.883232 -6.090166 8.750450 0.000000 0.000000 -27.763400 
-11.388507 9.135374 40.077358 -173.411948 -1.850132 -175.409251 7.002106 -5.776816 -7.865938 21.423908 -6.685319 19.448002 0.000000 0.000000 0.000000 -11.821334 -1.590026 -9.205313 4.549048 -6.296303 -43.834205 -17.106800 7.432990 0.996228 -45.528000 3.668110 43.743401 0.000000 -81.755699 0.000000 28.484800 8.396450 8.758800 21.607901 -0.819845 4.144580 32.311699 9.408240 2.878260 0.000000 24.320400 0.000000 -10.797700 -3.666900 -9.069560 -0.271527 -0.737280 -7.430309 0.000000 0.000000 16.895300 19.336174 -0.192535 1.049306 0.000000 0.000000 -35.165100 4.771541 2.210478 -24.343889 0.000000 0.000000 48.193699 13.854265 -5.976661 8.176567 0.000000 0.000000 -28.061900 
-11.389577 9.132765 39.948187 -173.406005 -1.755506 -175.277271 7.058275 -5.857539 -7.686273 21.660657 -6.764882 19.429847 0.000000 0.000000 0.000000 -12.399891 -1.277680 -9.710625 4.504594 -6.614400 -43.710679 -17.459299 7.628670 -0.067781 -45.218899 3.948800 44.135399 0.000000 -82.400002 0.000000 28.261200 8.374040 9.324570 21.563299 -1.304340 3.464660 32.110100 9.817250 3.779920 0.000000 24.060801 0.000000 -10.774700 -3.847980 -9.235120 -0.280558 -0.711675 -6.373344 0.000000 0.000000 16.208700 19.381310 0.080199 0.721000 0.000000 0.000000 -35.194000 4.505212 1.909228 -25.121614 0.000000 0.000000 44.054100 13.665176 -5.945995 8.189540 0.000000 0.000000 -27.727200 
-11.389838 9.128019 39.820757 -173.425561 -1.657733 -174.847603 7.160306 -5.950196 -7.833044 21.862919 -6.857749 19.396764 0.000000 0.000000 0.000000 -12.884321 -1.057310 -9.800356 4.291625 -6.731566 -43.782659 -17.684700 7.534120 -0.531498 -45.117199 4.206890 43.915501 0.000000 -82.972900 0.000000 28.098801 8.293510 9.457090 21.319500 -0.823022 2.994130 32.164001 9.065780 3.865470 0.000000 24.321400 0.000000 -10.769200 -4.037560 -8.991520 -0.315927 -0.656157 -5.682924 0.000000 0.000000 15.630400 19.481028 0.356583 0.422409 0.000000 0.000000 -35.314699 4.225027 1.607534 -26.024710 0.000000 0.000000 39.614300 13.041736 -5.743441 8.642706 0.000000 0.000000 -27.687000 
-11.390346 9.118808 39.695201 -173.538882 -1.577261 -174.321790 7.279451 -5.962988 -8.033221 21.983980 -6.908907 19.487761 0.000000 0.000000 0.000000 -13.462817 -0.729756 -10.310426 4.249377 -7.034064 -43.632129 -17.935499 7.646340 -0.502742 -44.974899 3.758770 43.542198 0.000000 -83.510803 0.000000 28.278500 8.187400 9.660240 21.366400 -1.895310 4.373160 31.486200 11.577700 3.560120 0.000000 23.491199 0.000000 -10.783800 -3.868930 -9.914370 -0.449133 -0.866887 -5.120898 0.000000 0.000000 15.095100 19.493146 0.795801 0.168817 0.000000 0.000000 -35.283899 3.853492 1.279893 -26.869143 0.000000 0.000000 34.826900 12.566317 -5.255334 9.389947 0.000000 0.000000 -27.891600 
-11.384829 9.107399 39.565532 -173.705764 -1.350302 -173.751344 7.302838 -5.920084 -8.281033 22.131311 -6.794776 19.251890 0.000000 0.000000 0.000000 -13.671260 -0.698445 -9.905420 4.019442 -6.922749 -43.756843 -17.893700 7.363650 0.692385 -45.205898 3.077470 42.420300 0.000000 -83.793098 0.000000 28.760700 8.057540 9.438940 21.112301 -0.534277 4.296850 31.620501 9.575570 2.705540 0.000000 24.132700 0.000000 -10.828800 -3.721690 -9.241900 -0.610983 -0.772445 -4.550244 0.000000 0.000000 14.536900 19.475658 1.064538 -0.115320 0.000000 0.000000 -35.403700 3.434746 1.336564 -27.534727 0.000000 0.000000 29.776300 11.752495 -4.652004 10.340367 0.000000 0.000000 -27.975400 
-11.376689 9.093831 39.431401 -173.904946 -1.179374 -173.741939 7.176844 -5.966216 -8.012272 22.350008 -6.850403 19.419740 0.000000 0.000000 0.000000 -14.061352 -0.440836 -10.342107 3.761655 -7.063494 -43.639252 -18.115700 7.549050 -0.682605 -45.098701 3.859300 42.991501 0.000000 -84.407600 0.000000 28.736401 8.260170 9.782740 20.877600 -0.163590 2.686800 31.870600 8.437930 3.426790 0.000000 24.238300 0.000000 -10.703800 -3.928640 -9.130040 -0.779674 -0.508899 -3.515869 0.000000 0.000000 14.220900 19.541075 1.169482 -0.520609 0.000000 0.000000 -35.501600 2.900755 1.732212 -27.333233 0.000000 0.000000 24.367001 11.563120 -3.897928 11.632734 0.000000 0.000000 -28.372600 
-11.364486 9.076862 39.295833 -174.138843 -1.103822 -173.278842 7.134075 -5.985761 -8.183149 22.514283 -6.815703 19.302153 0.000000 0.000000 0.000000 -14.430929 -0.312501 -10.204362 3.705850 -7.120881 -43.691524 -18.100599 7.476300 0.474452 -45.286098 3.118260 42.029598 0.000000 -84.719398 0.000000 29.103399 8.225280 9.284760 20.859100 -0.272446 4.294260 31.389999 9.470960 2.289830 0.000000 23.995300 0.000000 -10.866000 -3.677040 -9.200870 -0.934983 -0.343377 -3.095666 0.000000 0.000000 14.205300 19.492746 1.223042 -1.005030 0.000000 0.000000 -35.701000 2.134851 2.650440 -27.443024 0.000000 0.000000 19.096800 11.941234 -3.255525 12.754229 0.000000 0.000000 -28.621100 
-11.349041 9.058218 39.153004 -174.331427 -1.148939 -173.484233 7.115841 -5.997672 -7.884621 22.554192 -6.900885 19.574428 0.000000 0.000000 0.000000 -14.590937 -0.203123 -10.559953 3.515358 -7.229474 -43.691489 -18.221701 7.508530 -0.818132 -45.140301 3.940150 42.641201 0.000000 -85.288498 0.000000 28.931499 8.400130 9.828010 20.802200 -0.172712 2.594260 31.600401 8.502260 3.188940 0.000000 24.015499 0.000000 -10.923300 -3.586300 -8.721090 -1.013844 -0.159748 -2.138828 0.000000 0.000000 14.509600 19.538666 1.264814 -1.604891 0.000000 0.000000 -35.950399 1.422483 3.627195 -26.734597 0.000000 0.000000 14.097900 12.185233 -2.713477 13.695404 0.000000 0.000000 -28.296900 
